<svg version="1.1" id="Layer_1" xmlns="http://www.w3.org/2000/svg" xmlns:xlink="http://www.w3.org/1999/xlink" x="0px" y="0px"
	 viewBox="0 0 7937 6236.2" style="enable-background:new 0 0 7937 6236.2;" xml:space="preserve">
<g>
	<g>
		<path d="M4117,1906.6c3.9,15.3,8.3,28.2,10.2,41.5c2.9,20.1,4.8,40.4,5.8,60.7c1.3,27.7,1.2,55.6,2.2,83.3
			c0.4,10.2-4.7,12.8-13,10.8c-19.4-4.6-38.8-9.2-57.9-14.9c-9.8-2.9-14.8-1.1-16.5,9.2c-5.5,34-11.2,67.9-16.8,101.9
			c-0.2,1.3,0.5,2.8,0.9,5c2.4-0.6,4.8-0.4,6.3-1.6c54.2-42.4,117.2-69.2,177.8-100.1c22.8-11.6,45.7-22.8,68.6-34.1
			c17.3-8.5,28.1-22.3,34.5-40.2c15.6-44.2,11.5-89.2,4.4-134c-7.1-44.7-14.4-89.4-9.9-134.8c2.2-22.2,6.8-44.2,21.2-62.3
			c4-5.1,10.3-9.8,16.5-11.5c31.7-8.7,64.1-15.3,95.6-24.8c76-22.9,149.2-52.9,218.7-91.8c90-50.4,172.1-111.2,246.4-182.9
			c61.3-59.1,116.7-123,166.4-192c1.7-2.4,3.6-4.7,5.5-7c0.4-0.5,1.3-0.6,3.8-1.6c1.9,4.4,4.5,8.7,5.7,13.3
			c13.5,52.1,19.6,104.9,10.8,158.5c-10.2,62.1-38.8,115-80.3,161.9c-30.6,34.6-70.2,56.5-108.8,79.8
			c-58.3,35.2-117.2,69.3-175.9,104c-4,2.4-7.8,5.2-11,9.6c1.8-0.4,3.8-0.4,5.5-1.1c62.8-29.2,125.5-58.6,188.2-87.8
			c7.7-3.6,15.4-7.5,23.4-10.2c26.7-8.8,45.4-28.5,65.3-46.7c16.7-15.2,33.6-30.2,49.9-45.8c5-4.7,8.1-11.4,12.5-16.8
			c14.3-17.4,28-35.3,43.5-51.5c9.4-9.8,14.8-7.5,18.2,5.6c18.2,71.6,12.5,139.8-31.7,201.4c-25,34.9-57.2,62-95.7,81
			c-63.4,31.3-127.1,61.9-190.7,92.7c-1.9,0.9-3.8,1.9-5.5,5.6c4.2-0.4,8.7,0.1,12.7-1.2c78.4-24.8,151.7-60.8,223.1-101.1
			c24.5-13.8,48.8-28,73.2-41.9c3-1.7,6.4-2.9,13.5-6c-1.4,19.8-1.5,36.6-4.1,53.1c-12.4,79.4-59.3,132.5-129.1,168.3
			c-46,23.6-95.4,38.2-144.2,54.3c-22.8,7.5-45.6,15.1-68.4,22.8c-1.9,0.6-3.6,1.9-4.6,4.7c114.3-25.7,227.6-53.6,326-126.3
			c-1.9,9.7-3.7,19.4-5.8,29c-8.6,40.2-16.7,80.4-26.3,120.3c-2,8.1-8.9,16.2-15.6,21.9c-21.3,18.2-47.2,28-74.3,33.1
			c-29.7,5.6-59.9,9-90,12.3c-45.4,5-90.5,11.1-133.9,25.9c-8.1,2.8-15.6,7.5-23.4,11.3c0.3,1.1,0.6,2.2,0.9,3.3
			c3.7,0,7.5,0.6,11-0.1c57.9-11,115.9-20.9,173.4-33.6c45-9.9,89.3-23.3,133.9-35.2c8.1-2.2,9,1.5,7.7,8.1
			c-6.1,30.5-20.6,56.9-40,80.8c-30.4,37.7-69.9,61.9-114.4,79.5c-48.1,19.1-98.3,27.4-149.5,31c-3.6,0.3-7.2,1.2-11.4,2
			c12.5,8.8,62.2,11.9,113.9,4.9c37.8-5.1,75.2-13.2,115.5-20.5c-6.1,6.1-11.3,11.3-16.4,16.4c-41,41.1-82,82.2-123.3,123.1
			c-2.5,2.5-7.2,4.2-10.7,4.1c-31.4-1-62.9-2.8-94.3-3.6c-23.8-0.7-47.5,0.1-69.7,10.4c-1.7,0.8-3.3,1.6-4.9,2.5
			c-0.5,0.3-0.7,1.2-1.9,3.3c2.4,1.2,4.7,3.1,7.1,3.2c68.4,5.5,136.8,9.2,205.1-0.7c11.4-1.6,13,0.5,11,11.6
			c-6.9,40.1-30.1,66.9-66.8,82.3c-29.9,12.6-61.7,15.9-93.6,15.3c-25.5-0.5-50.9-3.4-76.4-5.2c-4.7-0.3-9.4-0.7-14.1-1
			c-0.3,1.1-0.6,2.1-0.9,3.2c11.4,3.9,22.5,8.4,34.1,11.6c32.5,8.8,65,17.4,97.7,25.4c8.2,2,9.8,4.5,5.8,12
			c-11.8,21.9-30.2,35.9-52.5,45.9c-36.9,16.5-75.4,17.9-114.4,11.6c-24.4-4-48.5-10.2-72.7-15.4c-2.7-0.6-5.4-0.8-8.1-1.2
			c-0.6,1.1-1.2,2.1-1.7,3.2c9.8,6.7,18.8,15,29.4,19.9c31.2,14.3,63,27.4,94.7,40.7c7.9,3.3,8.3,5.6,1.7,12.6
			c-24.2,25.8-55.5,32.2-89,33c-38.5,0.9-74.5-10.8-110.6-22c-16-5-32-10.1-48-15.1c-0.5,1-1.1,2-1.6,3c2.8,2.5,5.5,5.3,8.5,7.5
			c31.7,24,60.2,51.5,86.1,81.6c6,6.9,4,10.9-3.5,14.3c-34.5,15.5-69.7,17.4-106.3,8.1c-34.5-8.8-63-28.8-93.2-45.9
			c-39.6-22.3-79.7-43.9-119.8-65.5c-6.9-3.7-14.8-5.3-22.3-7.9c-0.7,1-1.3,1.9-2,2.9c1.4,2.7,2.6,5.6,4.1,8.2
			c24,40.9,47.7,81.8,72,122.5c26,43.6,60.2,78.5,107.1,100.1c22.8,10.5,45.2,22.1,67.4,34c5.1,2.7,9.6,8.2,12.3,13.4
			c23.2,44.1,23.3,91.8,21.2,139.8c-1.3,30-4.2,60-2.9,89.9c1.1,25.7,5.6,51.5,11.6,76.5c10.2,42.3,41.5,63.4,81.6,72.5
			c35.3,8,71,11,106.9,3c46.1-10.3,66.8-41.4,58.2-87.3c-1-5.3-3.3-10.7-6-15.4c-12.3-21.6-54.5-47.8-89.9-36.3
			c-4.6,1.5-8.8,6.2-11.8,10.5c-7.8,11.2-14.9,23-22.1,34.6c-4,6.5-8.2,6-13.5,1.4c-27.1-23.2-28.8-53.2-5.1-79.6
			c31.4-35.1,70.4-48.8,116.7-43.1c3.4,0.4,6.9,0.4,10.8,0.6c-3.6-13.8-17.6-21.6-34-19.1c-22.7,3.5-45.2,7.9-67.8,11.9
			c-2.4,0.4-4.9,0.6-9.3,1c2.7-12,11-18.3,18-25.3c26.8-27.2,59.5-40.6,97.7-40.8c8,0,9.9-4.4,9-11.7c-6.7-59.1-7.6-118.3-2-177.5
			c5.4-57.1,19.6-111.6,50.1-160.8c31.2-50.4,76.2-82.6,132.5-100.2c49.8-15.6,99.5-16.6,150.1-3.8c24,6.1,48.7,9.5,73.3,12.9
			c9.4,1.3,19.4,0.6,28.7-1.2c35.1-6.9,69.3-0.5,103.7,5.5c15.9,2.8,32.1,5.3,48.2,5.6c20.1,0.4,35.1-9.8,44.8-27.7
			c1.6-2.9,4.8-4.8,7.3-7.2c2,2.5,4.5,4.7,5.8,7.5c14.6,31.3-7.4,71.8-41.8,77.3c-3.5,0.6-7,1.2-10.4,3.4
			c10.4,5.8,21.7,6.7,31.4,0.2c19.9-13.3,38.9-28.1,58.3-42.2c4.1-3,8.3-5.6,15.1-10.2c0,15.2,2.4,28.4-0.5,40.3
			c-8.7,35.8-29.5,64-62.5,80.6c-12.9,6.5-29,7.3-43.8,9c-8.4,0.9-11.2,1.9-8.3,11.1c17.1,53.1,9.6,105.1-7,157
			c-14.3,44.4-27.5,89.1-40,134c-5.6,20.1-1.5,24.4,17.3,33.4c7.8,3.7,13.9,11,20.8,16.7c-7.8,4-15.5,10.8-23.6,11.5
			c-13.3,1.1-27.1-0.8-40.3-3.5c-13.5-2.7-14.4-2.6-14.4,11.5c0,19.6,9.5,33.6,24.5,45c9.4,7.2,18.6,14.7,27.8,22.2
			c2.4,1.9,4.3,4.4,6.4,6.7c-0.1,1.4-0.2,2.7-0.4,4.1c-14.9,3.4-29.6,8-44.7,9.6c-10.5,1.1-11,4-8.8,13.1
			c8.4,34.8,26.7,61.7,59.6,77.1c9.3,4.3,19.6,6.6,29.4,9.7c3.6,1.2,7.3,2.1,13.8,4c-35.1,30-72.1,27.2-109.9,17.2
			c-38.3-10.1-71.1-27.6-85.8-69.6c-10.7,11.9-20.3,22.4-29.6,33.1c-7.2,8.3-9.6,8-17.7,0.7c-24.4-21.9-22.5-62.5-8.3-91
			c6.2-12.3,15.6-23.1,24.7-36.1c-2.1-1.5-5.2-4.3-8.8-6c-32.7-15.3-66.8-18.1-102-11.1c-4.4,0.9-9.3-1.2-14-2
			c1.6-6.2,1.2-14.6,5.1-18c7.8-6.9,17.5-13.1,27.4-15.9c18.1-5.1,36.9-7.5,55.5-11.1c3.5-0.7,6.9-1.6,11.5-2.8
			c-1.8-2.4-2.4-4-3.4-4.5c-33.5-17.4-67-34.7-100.5-51.9c-2.6-1.3-5.8-1.5-8.5-2.7c-5.2-2.2-10.3-4.7-15.4-7.1c4-5,7.3-11,12.2-15
			c11.9-9.6,26.2-13.6,41.4-14.1c19.2-0.7,38.5-1.2,57.7-1.8c3.2-0.1,6.4-0.8,12.3-1.5c-3.8-3.5-5.4-6-7.7-6.8
			c-35.3-13.6-46.7-72.1-37.5-99.3c6.5-19.3,32.6-35.5,54.1-33.8c6.1,0.5,6.5,3.5,4.3,8.3c-10.9,24.1,4.5,52.3,30.7,55.8
			c3,0.4,6.8-0.6,9.5-2.2c25.8-15.2,52.3-29.4,76.5-46.9c8.2-5.9,12.4-19.8,15-30.8c12.5-54.3-9.1-91.3-51.8-122.1
			c-66.5-48.1-140.9-57.2-219.3-42.1c-44.4,8.5-73.8,37-90.6,77.7c-23.5,56.7-26,116.7-22.8,177c0.2,3.6,6.4,8.2,10.8,9.9
			c15.4,6.2,31.3,10.8,46.7,17c14.3,5.7,20.8,18.5,25,32.3c3.5,11.4,0,15.1-11.3,11.1c-13-4.6-25.6-4.4-37.8,1.2
			c-3.9,1.8-6.7,6.1-10,9.2c3.4,2.3,6.5,5.2,10.2,6.9c18.7,8.7,35.8,19.2,47.8,36.7c5.1,7.5,7.7,14.4-0.5,21.5
			c-4.4,3.8-3.6,7.6,1.1,10.8c31.8,22,43.2,55.7,50,91c3.4,17.6,2.6,36.1,2.9,54.3c0.2,10.3-5.9,13.3-14.4,7.5
			c-4.8-3.3-8.7-7.9-12.7-12.3c-3-3.2-5-7.7-8.5-10.2c-3.4-2.5-8.1-3.3-12.2-4.9c1.5,4,2.3,8.6,4.7,12c4.2,6,10.2,10.9,13.7,17.3
			c2.4,4.3,1.8,10.3,2.5,15.6c-5.6,0.2-11.4,1.6-16.6,0.3c-13.2-3.5-26-8.6-39.2-12.2c-5.6-1.5-11.8-1-17.8-1.4
			c-0.4,1.1-0.7,2.2-1.1,3.3c3.3,2.6,6.4,5.3,9.8,7.6c14.8,10.2,27.6,22.1,36,38.5c10.3,20.1,6.7,39.5-1.5,58.8
			c-2.8,6.6-7.1,6.1-10.8,1.1c-5-6.9-9.3-14.2-13.7-21.5c-2.7-4.4-4.6-9.4-7.8-13.3c-17.2-20.4-23.5-21.3-42.6,2.6
			c-3.7,4.6-6.3,10.1-8.8,15.4c-21,46.7-61.2,70.2-106.6,85.9c-51.2,17.7-103,13.5-154.4-0.4c-35.9-9.7-70.6-22.6-102.4-42.1
			c-57.5-35.2-89.2-86.1-92-154.1c-0.1-3.3-0.5-6.6-0.8-9.9c-0.1-0.6-0.9-1.1-2.5-3c-2.2,2.3-4.6,4.2-6.1,6.7
			c-14.9,24.2-21.7,50.9-23.1,79.1c-1.7,35.7,3.8,70.5,17.3,103.4c9.1,22.1,20.6,43.2,32,64.3c15.4,28.4,42.2,39.2,72.3,43.3
			c41.5,5.7,83.1,10.2,124.4,16.8c15.1,2.4,29.9,8.2,44.2,14.2c4.7,2,9.9,8.9,10.3,13.9c1.6,17.2,4.8,35.5,0.7,51.7
			c-11,43,7.3,73.4,35.8,101.8c26.3,26.2,42,58.1,44,95.7c0.5,8.4-0.6,17-1.3,25.5c-0.7,8.6-6.3,10.9-13.3,7.8
			c-7.3-3.2-13.9-7.9-21.7-12.5c4.4,14.8,9,28.7,12.5,42.8c4.8,19.5,8.8,38.9,2.2,59.1c-5.9,18.3-7.3,20.2-25.7,22.2
			c0.7,2.4,1,4.8,2,7c10.8,25.3,13,51.2,1.7,76.5c-4.3,9.5-13.4,17.2-21.3,24.7c-4.7,4.5-7.1,7.9-5.7,15
			c5.6,28.1-6.9,48.7-28.9,64.8c-6.6,4.9-11,5.6-12.5-4.7c-2.8-19-20.5-23.2-31.9-33.6c-1.1,0.7-2.2,1.3-3.2,2
			c1,3.1,2.1,6.1,2.9,9.2c4.3,16.4,8.8,32.7,12.4,49.2c0.9,4-0.7,8.8-2.1,12.9c-1.9,5.4-5.6,6.7-11.5,4.3
			c-17.6-7.5-35.4-14.9-53.4-21.3c-3-1.1-9.2,1.6-11.6,4.5c-12.9,15.1-25.4,30.5-37.1,46.5c-2.5,3.5-2.7,10.7-1,14.9
			c4.7,11.2,11.9,21.4,16.5,32.7c1.9,4.6,1.7,12-0.8,16.3c-17.7,31.2-35.8,62.3-54.8,92.7c-8,12.7-18.5,23.9-28.2,35.5
			c-5,5.9-9.1,5.3-11.7-2.7c-7.3-21.8-15.2-43.3-22.1-65.2c-3-9.5-7.4-14.4-18.3-12.9c-8.7,1.2-17.8,1.1-26.6,0
			c-5.6-0.7-12.4-2.6-16-6.4c-6.1-6.5-11.6-6.1-18.8-3.2c-22.3,8.9-44.9,17.3-67.2,26.2c-25.5,10.2-44.7,25.9-47.6,55.8
			c-0.9,9.4-7.4,7.7-13.1,4.1c-16.8-10.6-22.8-26.4-21.7-45.6c0.8-13.7,2.1-27.5,1.2-41.1c-0.7-10-3.3-20.4-7.2-29.6
			c-6.2-14.4,3.3-23.9,8.7-34.8c1.9-3.8,4.7-7.1,5.7-13c-3.6,0.8-7.4,1.3-10.8,2.6c-12.5,4.6-25,9.3-37.3,14.4
			c-7.5,3.1-14.2,2.7-20.8-2.3c-9.2-6.9-19.6-12.4-27.8-20.2c-11.1-10.5-23.1-9.9-34.9-4.2c-18.6,9-36.6,19.2-54.5,29.5
			c-9.4,5.4-10.8,5.3-12.8-5.3c-9.5-49,23.7-93,75-98.4c9.8-1,13.4-5.5,16-13.6c2.7-8.4,6.3-16.6,9.3-24.9
			c4.2-11.4,13-16.8,24.4-18.2c11.2-1.4,22.5-2.3,34.7-3.5c-1-2.5-1.2-4.5-2.4-5.6c-17.2-16.8-20.8-38.6-22.4-61
			c-0.9-11.8-0.9-23.7-2-35.5c-2.2-25.5-15-36.2-40.5-34.6c-2.6,0.2-5.2,1-7.7,0.8c-2.7-0.2-5.8-0.6-7.7-2.2
			c-0.8-0.7,0.4-4.9,1.7-6.8c10.3-15.2,24.5-25.2,43-25.9c12.4-0.5,25.3,0.7,37.2,3.8c33.6,8.9,67,18.8,100.1,29.5
			c6.6,2.1,14.6,8.2,16.8,14.3c7.5,20.3,12.7,41.5,18.6,62.4c3,10.6,4.8,21.8,8.9,32c11.5,27.9,28.4,28.9,52,18.9
			c27.4-11.7,38.6-36.7,46.4-63.2c6.5-22,12.5-44.2,17-66.7c7.2-35.6,22.6-68,36.6-101c6.5-15.2,13.1-31,15.7-47.2
			c3.8-24.3-0.9-48-21.7-64c-9.4-7.2-21.1-12.5-32.6-15.6c-22.9-6-46.6-8.8-69.5-14.9c-14.8-4-28.7-11.4-43-17.3
			c-1.9-0.8-3.9-1.5-6.3-2.4c0.8,12.4,2.4,24,1.9,35.6c-0.2,4.9-3.9,11.8-7.9,13.9c-30.6,15.3-54.8,37.5-74.4,65.2
			c-1.1,1.5-2.1,3.5-3.6,4.2c-3.3,1.4-7.4,3.5-10.4,2.7c-1.8-0.5-3.3-6.1-3-9.2c0.9-7.3,2.9-14.6,4.5-21.8c-1.1-0.5-2.2-1.1-3.3-1.6
			c-4.8,3.6-9.4,7.5-14.5,10.7c-21.9,13.7-44.1,27-66,40.7c-6.5,4.1-10,1-9.3-4.8c1.1-9.3,2.4-19.4,6.9-27.4
			c7.8-13.8,18.7-25.8,27.1-39.2c5.8-9.2,11.3-19.2,13.9-29.7c8.1-33.1,12.2-66.7,12-101.2c-0.2-38.4-18.6-65.4-46.7-87.7
			c-23.2-18.4-47.2-35.8-70.9-53.6c-20.6-15.5-39.3-32.8-51.3-56c-4.2-8.1-7.5-16.9-9.4-25.8c-3.6-16.6-3.1-16.1-20.5-18.7
			c-45.4-6.9-90.6-15.1-132.8-34.6c-8.6-4-16.9-8.6-25.3-13c-1,0.8-2,1.7-3,2.5c6.2,8.2,11.8,16.8,18.6,24.4
			c14.1,15.7,28.6,31.1,43.5,46.1c23.2,23.4,40.5,50,47,82.7c0.9,4.5-0.4,10.5-2.8,14.4c-31.5,51.5-63.3,102.7-95.1,154
			c-2.3,3.8-4.9,7.4-7.4,11.1c-7.3,11-13.6,11.5-23,1.8c-1.3-1.3-2.3-2.9-3.8-4.1c-3.5-2.8-7.2-5.4-10.8-8.1
			c-2,4.9-5.8,9.9-5.7,14.8c0.2,8.8,2.7,17.5,4.3,26.2c0.6,3.3,1.3,6.6,1.5,9.9c1.1,17.9-3.8,21.4-20.1,14.2
			c-12.2-5.4-24.7-10.3-36.3-16.7c-8.2-4.5-12.9-2.6-17.5,4.4c-8.7,13.3-17.6,26.5-26.5,39.7c-15.6,23-28.2,23.4-43.4,0.2
			c-7.3-11.1-11.9-23.8-18.5-35.3c-2.1-3.7-6.5-6-9.8-9c-1.5,3.9-3.6,7.8-4.5,11.8c-5.2,21.6-10.1,43.2-15.2,64.8
			c-1.9,8.2-6.6,10.3-13.8,5.6c-14.5-9.6-28.8-19.5-43.2-29.1c-5.1-3.4-10.4-6.4-16.4-10.1c-3.5,14.9-6.4,27.8-9.7,40.5
			c-3.5,13.8-5.2,14.6-18.4,9.6c-16.9-6.4-34-12.7-50.6-19.9c-15.8-6.8-26.4-18.5-30.1-35.9c-0.6-2.7-2.6-5.1-5.2-10.1
			c-6.7,7.1-12.7,12.8-18,19.1c-6.7,7.9-13.6,7.5-19.5,0.2c-5.6-6.8-9.8-14.7-14.8-22.1c-3.5-5.2-6.9-10.5-10.9-15.3
			c-2.2-2.6-5.8-4-8.8-6c-2.3,3.6-5,6.9-6.7,10.7c-5.6,13.2-9.2,27.6-16.8,39.5c-5.6,8.7-16.5,13.8-24.6,21.1
			c-3.6,3.3-8.2,7.8-8.6,12.1c-2.2,24.2,0.7,48,8.4,71.2c3,8.9,0.9,12-8.5,11.1c-22.3-2.3-40.2-12.3-52.3-31.5
			c-10.4-16.6-19.3-34.3-30.7-50.1c-7.1-9.9-17.9-17.1-26.6-25.9c-3.4-3.5-6.8-8.1-7.7-12.6c-1.8-9.8-2.1-19.8-2.6-29.8
			c-0.3-6-1.8-10-8.6-6.7c-39.1,19.4-80.3,34.8-115.4,61.5c-17.4,13.2-26.5,31.4-29.2,52.9c-0.3,2.2-0.6,4.4-1.1,6.5
			c-0.3,1-1.2,1.7-3.5,4.8c-4.8-7.4-9.7-13.5-13.2-20.4c-14.8-29-15.3-59.8-9.9-91.1c6.3-36.7,14.4-72.8,38-103.1
			c3.4-4.4,7.2-8.4,10.7-12.7c0.4-0.5,0.4-1.4,0.7-2.8c-0.8-0.7-1.8-2.2-3-2.3c-41.4-5.3-70.1-31.5-97.2-59.8
			c-6.3-6.6-11.9-9.2-21.2-7.2c-15.9,3.5-32.2,5.1-48.2,7.8c-9.6,1.6-12.4-1.1-9.7-10.8c6.2-22.2,21-37.1,41.7-46.1
			c18.8-8.1,38.7-10.2,58.8-7.8c8.8,1.1,15.2-1,22.2-6.7c22.3-18.4,48.7-25.7,76.9-21.6c20.3,2.9,40.1,10,60.1,15.1
			c1.6,0.4,3.4,0.3,8,0.7c-2.9-4.9-4.2-8.6-6.7-10.9c-3.8-3.4-8.5-5.9-12.9-8.6c-16.9-10-24.3-34.1-14.1-51
			c4.1-6.9,11.9-11.5,20.3-19.2c-6.2-7.9-12-18-20.4-25.1c-15.8-13.3-34.5-21.3-55.1-24.6c-3-0.5-5.8-2.3-8.8-3.5c1.6-3,2.5-7.1,5-9
			c16.6-12.1,34.4-18,55.9-16.1c36.8,3.4,67.9,16.5,93.5,43.3c2.8,2.9,9.4,4.2,13.7,3.3c41.9-8.4,70.4,6.1,88.1,45.1
			c14.4,31.7,16.5,66,19.6,99.8c3.3,35.6,0.1,30.5,32.7,37c78,15.6,154.2,8.5,227.8-21.5c34.8-14.2,61.6-37.7,76.3-73.5
			c3.1-7.6,2.9-13.4-3.3-18.9c-16.1-14.2-31.6-29.1-48.1-42.8c-44.2-36.8-69.6-82.8-71.6-140.9c-0.1-1.8-0.7-3.5-4.1-6.7
			c-2.4,4.5-6.9,9.1-6.8,13.5c0.6,28-16,40.6-39.9,48.3c-16.5,5.3-32.4,12.6-48.8,18.5c-3.2,1.2-7.3-0.1-10.9-0.2
			c0.7-4.5,0.1-9.8,2.4-13.1c2.7-3.8,8-5.8,14.1-9.8c-13.1-3.7-24.4-2.4-34.6,2.3c-15.8,7.2-30.8,16.1-46.4,23.9
			c-3.6,1.8-8.2,1.9-12.3,2.7c-0.4-3.9-1.5-7.9-0.9-11.7c3.5-25.2,17.8-43.8,38.2-57.4c17.8-11.9,36.7-22.2,55.2-33
			c14-8.1,19.1-15.5,14.4-31c-5.1-17.1-12.5-33.9-20.9-49.7c-10.7-20.2-23.3-40.3-17.1-63.8c5.6-21.3,12.4-43.2,23.7-61.7
			c19-31.2,42.4-59.7,63.2-89.9c14.3-20.7,27.1-42.3,41-63.3c2.7-4,7-8.4,11.3-9.6c68.5-18.5,134.8-15.9,197.1,22.2
			c2.2,1.3,4.8,2.6,6.2,4.6c9.7,13.7,25,15.2,39.3,20c45.9,15.3,91.5,31.7,137.2,48c12.2,4.3,24,9.7,36.1,14.4
			c2.8,1.1,6.1,1,9.1,1.5c0.1-3.2,1-6.5,0.3-9.5c-7.2-30.7-20.1-58.8-38.8-84.2c-31.3-42.6-70.4-77-114-106.3
			c-48.6-32.6-98.9-62.6-146.7-96.3c-50.4-35.4-93.8-78.4-123.4-133.4c-5.9-11-10.2-23-13.8-35c-5-16.9-6.1-19-23.5-18.1
			c-49.2,2.4-98.5,3.9-147.6,8.3c-75.6,6.7-151.1,15.6-226.6,23.5c-10.3,1.1-20.7,1.8-30.9,3.2c-2.4,0.3-4.5,2.7-6.7,4.2
			c1.7,1.8,3,4.6,5,5.1c12.1,3.2,24.2,7.2,36.5,8.4c19.1,1.8,38.5,0.9,57.7,2.2c9.9,0.7,19.8,3,29.3,5.9c4.4,1.4,9.1,5.4,11.3,9.5
			c10.4,19.2,20.3,38.6,29.6,58.3c6.2,13,11.3,26.5,16.5,39.9c7.6,19.7,4.9,39.3-1.3,58.8c-2.6,8.2-6.7,9.7-12.5,3.7
			c-5.4-5.5-9.6-12.1-14.6-18.1c-8-9.6-16-19.4-24.5-28.6c-7.3-8-15.8-9.9-25.9-3.8c-7.5,4.6-16.3,7.2-23.8,11.8
			c-9.1,5.6-17.1,4.2-26.2-0.1c-30.6-14.3-52.9-38.7-77.3-60.8c-19.1-17.2-39.9-32.8-61-47.6c-11.5-8-13.9-5.4-18.3,7.9
			c-19.2,58.4-38.6,116.6-58.6,174.7c-1.6,4.7-7.7,8.6-12.5,11.5c-21.3,12.4-41.2,26.2-53.5,48.6c-9.5,17.3-12.5,35.4-9.1,54.7
			c0.5,3.1,0,6.3-0.1,9.5c-3.5-0.2-7.3,0.4-10.4-0.8c-31.9-12.4-53.1-57.4-42.1-92c3.3-10.5,2.1-17.3-6.4-24
			c-4.6-3.6-8.3-8.5-11.8-13.2c-10.1-13.6-12.3-28.3-1-41.9c14.8-17.9,31.5-34.3,46.1-52.4c14.8-18.3,31.8-36.1,41.5-57
			c17.6-38.1,11.4-41.9-27.9-41c-30.6,0.7-55,17.4-79.8,33.4c-20.8,13.3-42.9,24.6-64.8,36.1c-9.4,4.9-18.2,3.8-25.8-5.2
			c-5.9-7-13.3-12.9-20.1-19c-6.6-6-14.6-6.9-21.5-2c-12.9,9.2-25,19.3-37.2,29.4c-7.1,5.9-14.4,15.5-23.3,10.3
			c-4.1-2.4-3.7-15.4-2.6-23.2c3.8-27.2,17.2-49.9,35.5-70.2c19.3-21.4,37.4-44,56.7-65.4c4-4.4,11.1-8.2,16.8-8.3
			c41.1-0.7,82.2,0.4,123.3-0.6c21.7-0.5,43.3-3.8,65-6.3c3.2-0.4,6.1-3.1,9.2-4.8c-2-3.3-3.2-8-6.2-9.7
			c-21.3-11.8-43.1-22.8-64.5-34.5c-14.8-8.1-30.7-15.1-43.3-26c-13.9-12-17.9-29.8-12.4-48c3.3-10.9-0.5-17.7-9.2-23.4
			c-18.6-12.2-39.5-16.1-61.3-17.2c-3.4-0.2-6.8-0.8-10.2-1.3c-0.4-1.2-0.8-2.4-1.2-3.6c6.6-4.1,12.9-9.1,19.9-12.3
			c23.1-10.7,47.4-9.8,72-6.6c38.6,5,77.2,9.3,115.8,13.9c9.4,1.1,16.4,3.9,19.1,14.8c5.5,22.6,15.5,43.1,31.3,60.5
			c19.4,21.3,43.3,33.9,71.7,39.1c49.7,9,97.5-1.2,144.8-14c58.3-15.8,112.2-41.8,162.7-74.9c6.2-4.1,12.3-8.2,18.5-12.3
			c6.3-4.1,5.9-7.9-0.4-11.5c-0.6-0.4-1.2-0.9-1.9-1.1c-27-10.2-38.3-30.5-46.1-58.1c-19.6-69.8-40.7-139.4-66.3-207.1
			c-23.1-61.2-52.2-120.1-79.8-179.4c-13.3-28.5-29.2-55.7-44.2-83.3c-5.4-10-9-9.9-15,0.3c-11.6,19.6-14.4,41.7-17.6,63.7
			c-3.5,24.1-6.7,48.4-11.9,72.1c-5.3,24.2-20.4,39.5-46.1,43.3c-32.1,4.6-56.7,24.2-82.2,42.1c-11.1,7.8-23,14.8-35.1,20.9
			c-14.2,7.2-29,4.2-43.2-0.9c-6.4-2.3-6.7-6.3-0.9-10.3c27.4-19,42.7-47.5,59.1-75.2c1.5-2.5,1.4-7.7-0.3-10.2
			c-25.2-38.7-6.5-72.9,19.1-95.6c28-24.8,56.4-49.7,71.7-85.1c12.2-28.3,12-31.5-20.2-39.5c-27-6.7-52.8-1.1-78.5,6.9
			c-21.6,6.7-43.4,12.6-65.1,18.8c-21.8,6.1-41.4,3.9-58-13.8c-17.7-18.9-38.5-27.3-65.1-19.1c-18.3,5.6-37.6,8-56.5,11.9
			c-14.2,3-15.6,1.6-13.5-12.9c5.9-39.6,35.2-67.4,79.3-71c18.5-1.5,30.9-7.3,38.1-24.2c10.4-24.7,31.6-26.2,53.9-24.4
			c34.1,2.8,66.9,11.6,99.4,22.1c33.3,10.8,67.7,16,103,12.8c1.8-0.2,3.5-1,7.9-2.3c-5.4-11.1-10.2-21.6-15.6-31.8
			c-16.1-30.5-36-57.8-64.8-77.6c-3.7-2.5-7.3-5.8-11.4-6.8c-15.9-3.7-20.5-14.3-20.7-29.3c-0.3-21.5-0.8-43-2.8-64.3
			c-1.2-12.7-4.8-25.4-8.8-37.5c-6.3-18.9-21.6-28.3-40-33.5c-3.4-1-6.9-1.7-12.2-3.1c8.4-12.3,19.6-16.4,31.1-19.7
			c21.5-6.1,41.2,0.5,59.8,10.3c21.9,11.6,40.4,27.6,53.4,49c4.5,7.4,9.8,9.4,18.4,8.3c41.7-5.4,65.8,10.2,80.1,49.8
			c11.4,31.4,9.2,64.2,12,96.6c1.6,18.4,3,36.9,5.1,55.3c1.4,12.2,7,15.1,15.8,6.9c11.5-10.7,23.2-22.1,31.4-35.3
			c14.2-22.9,26-47.4,38.3-71.4c14.4-28,46.6-55.1,87.7-45.3c10.8,2.6,16.5-2.3,20.8-11.6c14.8-32,22.2-65.8,26.2-100.6
			c1.4-11.9,3.7-13,13.4-5.3c14.3,11.3,22.4,26.8,25,44.4c6.2,40.8,4.6,80-26.7,112c-6.5,6.6-3,12.1,2,17.3
			c14.2,14.7,15.1,21.6,6.2,40c-12.1,24.7-31.6,42.5-53.3,58.5c-15.5,11.4-31.5,22.4-45.4,35.5c-10,9.4-18.4,21.4-24.7,33.6
			c-9,17.4-11.2,36.5-0.6,54.3c22.8,38.1,44.6,77,69.9,113.4c45.4,65.4,93.6,128.7,139.5,193.8c22.4,31.7,42.3,65,63,97.9
			c6,9.5,8.3,10.1,15.5,1.5c5.2-6.3,10.4-6.8,15.2,0.3c23.8,35,59.4,53.6,96.7,69.9c2.7,1.2,6.1,0.8,10.9,1.3
			c-7.3-14.7-14.2-27.3-19.9-40.4c-3-6.9-3.8-14.6-5.6-22c7.1-0.7,14.2-2.6,21.2-1.9c28.7,2.9,57.3,7.8,86.1,9.5
			c16.3,0.9,32.8-2.9,49.2-4.9c2.2-0.3,4.1-2.4,8-4.8c-10-4.5-18.3-8.1-26.5-12c-17.3-8.1-31-20.1-39.4-37.5
			c-5.4-11.2-4.2-13.6,8-15.2c22.4-2.8,45.3-3.4,67.2-8.1c28.1-6,55.8-14.6,83.2-23.3c15.9-5,16.3-9.9,3.1-20.3
			c-7.8-6.2-17-11-23.9-18c-8.2-8.2-15.5-17.6-21.6-27.5c-5.2-8.5-2.4-12.4,7.5-14.5c33.3-7.2,66.6-14.3,99.8-21.8
			c6.4-1.5,12.7-4.1,18.7-6.9c2.5-1.2,4-4.5,5.9-6.8c-2.8-1.3-5.5-3.4-8.4-3.7c-5.9-0.5-11.9,0.5-17.7-0.1c-9.8-1.1-11.3-5.3-5-12.9
			c10.5-12.9,21.7-25.3,31.6-38.7c9.4-12.8,17.9-26.3,26.2-39.8c5.7-9.3,5.3-18.3-2.3-27.5c-18.6-22.8-43.1-33.2-71.5-35.5
			c-28.4-2.3-56.1,2.6-83.1,11.1c-8.7,2.7-15.8,0.7-21.2-5.4c-11.2-12.3-22.1-24.8-32-38.1c-5.3-7.2-10.9-10.8-19.9-11.7
			c-48.6-5-97.3-10.4-145.8-16.2c-24.8-3-41.8-19.1-54.9-38.2c-13.2-19.2-18.8-41.9-19.2-65.2c-0.6-28.6,13.7-48.4,39-60.7
			c8.6-4.2,10.1,0.1,9.9,7.9c-0.6,24.3,1.7,48,15.7,69.2c5.9,8.9,13.4,12.7,23.5,10.7c37.1-7.1,74.1-14.6,111.2-21.6
			c46.4-8.7,91.6-24.6,139.8-23.2c26.2,0.7,51.7,3.5,75.8,14.5c2.2,1,4.9,1.3,8.9,2.3c-1.3-3.1-1.6-5.4-2.9-6.5
			c-34.5-27.8-70.3-53.2-114.5-63.6c-41.7-9.7-78.7-0.6-110.8,27.1c-17.2,14.8-18.9,14.1-25.8-9.1c-5.5-18.4-2-36.8,7.4-53.7
			c10.1-18.1,20-36.3,31-53.9c3.3-5.3,9.4-9.4,15-12.4c27-14.7,54-29.4,81.5-43c28-13.8,57.7-15,87.9-8.5
			c13.3,2.9,18.5,0.6,22.6-12.6c3.6-11.6,10.5-16.6,22.1-15.1c13.9,1.8,28.2,2.8,41.6,6.5c39.6,11,78.8,23.1,118.1,35
			c13.6,4.1,18.2,2.9,19.5-11.6c2-22,1.6-44.3,1.8-66.5c0.1-7-0.6-14.1-1.4-21.1c-1-8.6,3.4-11.8,10.3-8.2
			c15.3,7.9,31.5,15.2,44.5,26.1c27.6,23.3,45,54.6,61.2,86.5c3.7,7.3,10,19.8,13.6,19.3c11.8-1.8,26-5.5,33.5-13.8
			c9.7-10.6,16-25.7,20-39.9c5.7-20.6,8.1-42.2,11.8-63.3c2.2-12.6,5-14.1,17-8.2c26.4,12.8,44.6,33.6,58.3,59
			c19.8,36.6,33.3,74.8,24.8,117c-2.6,13.1-9.6,25.4-15.3,37.7c-4.3,9.4-3.2,11.6,7.2,12c3.7,0.1,7.4,1.8,11.1,2.8
			c-1.5,3.1-2.6,6.6-4.7,9.3c-28.5,36.9-57,73.9-86,110.5c-5.4,6.8-6.4,11.9-1.5,19.6c12.4,19.8,14.4,42.5,15.7,65.1
			c2.1,36.7-8,72-11.9,108c-3.4,30.7-3,62-3.1,93c0,8.9,3.1,18.3,6.7,26.7c3.3,7.9,1.3,12.3-4.8,17c-22.9,17.5-47.1,14.9-71.4,4.2
			C4139.4,1919.3,4129.4,1913.1,4117,1906.6z M3945.2,1429.5c-6.6,0.6-13.4,0.5-19.8,2.1c-2.5,0.7-6,5.4-5.8,7.9
			c1.1,11.7,2.8,23.4,5.6,34.8c1.3,5.3,4.6,11.4,8.9,14.3c17.2,11.6,57,10.1,73.5-1.6c12.3-8.7,13.3-23.4,1.4-32.4
			C3990.2,1440.3,3970.1,1428.8,3945.2,1429.5z M4588.9,4046.5c0.8-0.7,1.7-1.5,2.5-2.2c-1.1-14.4-15.5-29.4-28.5-27.6
			C4572,4027.2,4580.5,4036.9,4588.9,4046.5z"/>
	</g>
	<path d="M2441,4334.9c-8.3-8.8-12.9-14.1-17.9-19c-40.5-39.2-82.6-77-121.3-118c-30.8-32.6-57.3-69.3-86.5-103.5
		c-6.4-7.5-15.4-14.1-24.5-17.5c-28.4-10.5-57.2-20.8-86.6-27.8c-13.5-3.2-29.3-0.5-43.3,2.7c-134.9,30.5-242.7-32.5-319.5-162.4
		c22-4.7,42.4-10.3,63.1-13.2c87.7-12.1,170.5-2,238.4,61.2c20.1,18.7,36,42,52.6,64.2c14.2,19.1,32.8,25.4,60.4,26.7
		c-21.5-30.9-41-56.9-58.4-84.3c-30.7-48.3-58.8-98.2-90.6-145.7c-12.5-18.6-30.7-34.1-48.6-48c-31.8-24.7-66.3-37.8-109.5-37.4
		c-107.8,1-175.5-63.1-223.4-152.8c-8.4-15.8-15-32.5-24.1-52.7c56.7-5.4,108.4-2.5,159.3,14.4c71.5,23.8,118.9,72.5,147.1,141.1
		c8.9,21.7,21.7,38.1,51.8,45.4c-9.4-21.2-17.4-37.7-24.2-54.6c-23.6-58.6-46.4-117.6-70.5-176c-4.4-10.7-11.8-20.9-20-29.1
		c-34.3-34.4-75.7-53.3-123.2-66.4c-85.6-23.5-127.5-90.5-149.5-172c-4.4-16.2-7.2-32.9-10.9-50.1c88.2,1.1,214,55.7,239.1,170.1
		c3,13.5,4.5,27.7,9.7,40.4c4,9.6,12.8,17.1,19.4,25.6c2.7-1.6,5.4-3.1,8.1-4.7c-5.2-22.3-10.8-44.5-15.7-66.9
		c-10.7-49.9-20.6-100.1-32-149.9c-2.2-9.5-8.7-18.8-15.4-26.2c-90.8-100.9-96.8-205.8-32.5-326.7c2.2,0.4,5.4-0.1,6.9,1.2
		c92.6,89.7,134.9,189.8,78.4,313.5c-5.7,12.5-8.1,29.2-5.4,42.6c15.7,77.1,33.5,153.7,52.1,237.6c16.9-20.8,23.5-34.6,15.3-54.1
		c-49.7-117.8-1-219.4,106.3-287.9c5.4,15,10.8,28.9,15.5,43c33.7,102.5,19.6,191.5-71.7,260.2c-9.6,7.2-13.5,23-18.2,35.4
		c-17.7,46.1-21.4,90.8,2.9,137.5c25.1,48.3,44.5,99.6,66.6,149.5c2.7,6,7.4,11.2,13.2,19.6c10.6-23.2,12.2-41.9,1.1-63.1
		c-64.5-122.8-25.4-235.6,82.7-323.9c23.8,32,34.9,69.1,44.3,106.4c22.8,90.7-1.1,167.6-70.7,230.9c-9.9,9-15.6,24.1-20.3,37.4
		c-16.8,47-5.3,88.4,23.6,128.4c40.6,56.2,78.1,114.6,116.9,172.1c5.3,7.8,10.4,15.7,15.6,23.5c4.3-2.5,8.6-5.1,12.8-7.6
		c-6-20.1-6.4-45-18.9-59.7c-80.6-94.5-91.9-200.2-28.8-307.9c9.2-15.7,19.5-30.7,29.6-45.8c1.7-2.5,5.4-3.7,8.1-5.4
		c89.1,94.1,117.3,203.9,57.5,318.6c-0.4,0.8-0.6,1.7-1.3,2.3c-43.5,37.7-30.1,88.2-29.2,135.3c0.2,9.8,7.3,21.3,14.5,28.9
		c39.2,41.6,78.9,82.8,119.4,123.2c28.2,28.2,57.8,55.1,87,82.4c5.3,5,11.4,9.2,21.7,17.4c-0.2-27.3-4.8-46.4-24.4-58.2
		c-71.8-43-109.8-109.6-128.2-188.2c-13.3-56.8,3.3-112,18.6-166.4c0.9-3.2,17.1-7,19.8-4.2c43.7,45,102.7,75.3,130,135.8
		c13.9,30.9,25.6,61.2,22,97.3c-4,40.3,0.5,81-16.3,120c-4.1,9.6,5.5,24.6,7.5,37.3c7.4,49,31.6,85.4,74.3,112.2
		c66.9,41.8,131.8,86.7,197.7,130.1c4.8,3.2,10.3,5.4,22.9,12c-11-26.7-14.3-47.9-38.3-58.1c-57.8-24.6-109.5-58-140.5-114.7
		c-37.4-68.2-46.9-140.4-24.5-215.9c98.3,21.9,207.9,116.4,211.6,234.6c0.2,7.8,1.9,16.1,0,23.4c-13.9,54.4,14.1,99.2,33.4,145.7
		c3,7.3,10.4,14.8,17.7,17.9c102.6,44,205.5,87.2,308.4,130.4c1.1,0.5,3.1-1,9-3.2c-12.5-17.8-20.4-35.9-45.3-40.4
		c-83.2-15.4-155.1-49.9-201.1-125.3c-32.6-53.4-49.2-111.9-55.3-182.1c38.5,11.1,73.8,18.3,106.8,31.3
		c86.6,34.2,151.1,90.9,175.2,185c1.3,5,4.1,10.1,4,15c-0.9,42.2,23.4,71.4,46.1,104c26.7,38.4,64.6,48.2,103.9,55.5
		c92.8,17.4,186.3,31.7,279.5,47c3.9,0.6,8-0.5,15.4-1.1c-12-18.3-25-28.9-44.9-28c-189.3,8.6-269.1-100.3-320.9-228.5
		c-1.9-4.8,4.5-18.5,8.8-19.4c114.2-24.7,266.1,50.9,318.6,157.5c2.3,4.7,5.4,9.2,6.4,14.2c11.4,55.4,58.1,78.9,97.9,108.4
		c6.3,4.7,16,5.8,24.3,6.9c76.5,9.8,153.9,15.3,229.3,30.4c42.2,8.5,79.5,1.1,119.6-5.2c66.8-10.6,134.5-15.4,201.5-24.6
		c17-2.3,34.1-10.3,49.1-19.1c17.8-10.5,34.2-23.8,49.8-37.5c7.9-7,15-16.7,18.5-26.6c45.5-127,137.5-191.2,270-201.4
		c21.6-1.7,43.3-3.8,64.9-3.2c5.3,0.1,15.9,12.4,14.7,15.3c-30.9,77.7-70.6,149.3-145.2,194.3c-52.3,31.6-110.2,41.1-170.1,38.6
		c-22.5-1-37.1,8.6-53.1,25.6c5.9,2.3,8.9,4.6,11.6,4.3c113.3-10.5,224.9-31.1,334.4-61.9c13.7-3.8,26.4-14.8,37.1-25.1
		c13.7-13.1,26.7-27.7,36.9-43.7c9.4-14.8,19.1-31.8,21.2-48.7c14.2-116,81-188.5,186.5-229c31.8-12.2,65.4-19.5,102.7-30.4
		c-1.9,52.2-13.8,95-30.6,136.7c-40.5,100.8-120,151.3-222.7,170.6c-24.7,4.6-34,21.6-44.7,38.8c1.2,2,2.4,4.1,3.6,6.1
		c41.1-14.6,83-27.3,123-44.3c60.6-25.7,120.3-53.6,179.3-82.7c12.5-6.1,22.6-20.1,30.1-32.6c10.2-17,17.7-35.8,24.7-54.4
		c4.1-10.9,8.1-23.4,6.7-34.5c-20.5-160.2,64.7-249.2,206.7-313.7c1.4-0.6,3.4,0.1,8.6,0.4c1.6,11.5,4.1,23.8,5.1,36.2
		c10.2,139.4-33.8,242-169.1,299.4c-25.7,10.9-33.8,31.3-43.5,62.3c15.3-8.8,25-13.4,33.7-19.4c75.1-51.4,151.3-101.3,224.2-155.7
		c16-12,20.6-39.7,29.7-60.4c13.6-31,15.4-61,4-94.9c-21-62.4-9-127.5,20.2-181.5c29.5-54.5,77.8-98.9,139.6-136
		c9.7,38.7,26.9,74.3,25.7,109.2c-3.5,101.3-30.5,193.8-126.5,250.1c-22.5,13.2-27.1,25.8-26.1,57c5.9-3.6,11.1-5.8,14.9-9.5
		c42.5-41,85.1-81.8,126.8-123.6c21.7-21.8,39.5-47.8,62.8-67.5c43.6-37.1,32.4-86.3,33.7-132.8c0.2-7.3-7.4-15.3-12.6-22.1
		c-38.9-50.5-55.9-107.7-48.4-170.7c8.3-69.5,43.8-126.4,89.9-181.4c32.6,33.4,51.3,72.2,65.2,112.9c30.4,89.3,11,169.6-50.1,239.8
		c-17.4,20-12.6,40.8-6.6,65.6c14.2-18.6,29.7-36.3,42.4-55.8c37.3-57.4,74.3-115.1,109.5-173.8c6.7-11.2,6-27.5,6.4-41.5
		c0.2-10.2-4.8-20.4-5.3-30.7c-1.2-23-10.6-39.9-27.9-56.1c-82.6-77.5-89.1-163.8-50.7-269.7c7.3-20.2,17.3-39.4,27.5-62.5
		c39.8,29.2,67.5,63.9,89.2,103.4c40.3,73.2,34.5,147.2-2.1,219.2c-11.1,21.8-9.3,40.8-3.3,69.7c8.3-12.6,14.2-19.3,17.5-27.1
		c27.2-62.8,55.8-125.1,79.4-189.3c6.6-18.1-1-41.9-3.9-62.8c-5-34.9-19.3-62.7-48.5-87.2c-59.6-50-77.4-117.3-60.5-193
		c6.5-29.2,15.6-57.8,23.7-87.5c62.4,28.7,141.5,117.9,127.3,213.3c-3.7,24.6-13.2,48.4-17.3,73c-2.5,15.2,0.4,31.3,0.8,46.9
		c4,0.2,8,0.5,11.9,0.7c11.2-42.1,22.6-84.2,33.6-126.4c4.1-15.9,6.7-32.3,10.6-48.3c11-45.3,11.9-87.6-7.3-133.7
		c-28.8-69-16.3-138.5,25.9-200.6c19.7-29,42.6-55.8,65.3-85.3c60,96.6,71.3,212.4-7.1,307.4c-22.1,26.8-37.1,54-43.2,88.6
		c-10.2,57.1-25,113.3-37.7,169.9c-0.7,3.1-0.1,6.4-0.1,11.1c19.5-2.6,24.9-14.3,27.5-30c23.5-138.9,124.8-188.5,238.6-205.4
		c1.4-0.2,3,1.3,7.4,3.4c-4.8,47-19.9,91.3-44.6,132.4c-33.3,55.5-84.3,84.3-146.4,99c-54.8,13-95.4,46.3-117.6,99.3
		c-28.5,67.9-56.4,135.9-84.5,204c-0.9,2.2-0.4,5-0.8,10.9c23.4-3.8,36.6-16.5,44.9-36.7c24.2-58.7,60.5-107.1,119.4-135.3
		c59.5-28.6,122.2-32.8,187.7-28.2c-40.9,124.1-131.7,212-262.5,208.7c-61-1.5-106.3,33.2-139.1,80.5
		c-49.9,71.8-95.5,146.6-142.9,220.2c-1.8,2.7-3.3,5.6-7.8,13.3c27.9-1.8,48.3-7.6,61.9-29.3c32.3-51.5,74.6-91.4,132.7-112
		c69.8-24.8,140.2-17.8,210.4-1.3c2.9,0.7,5.2,4.1,7.5,6.1c-45.6,112-191.3,189-306.1,161.4c-27.1-6.5-51.2-4.5-78.6,2.1
		c-48.3,11.7-81.2,38.3-113.4,75c-56.5,64.4-119.5,123.2-180.4,183.8c-5.1,5.1-14.8,5.6-19.5,11c34,19,67.2,12.5,85.7-9
		c105.6-122.9,232.3-117.4,357.4-68.8c12.4,4.8,13.4,12.1,4.5,21.6c-60.5,64.5-126.5,121-220.1,125.3c-34.8,1.6-71.7-3.1-104.7-14
		c-34-11.2-67-12.2-101.7-14c-44.6-2.3-77.7,12.8-113.1,39.4c-71.9,54.1-148.9,101.5-223.8,151.7c-4,2.7-7.8,5.7-14.8,10.8
		c25,12.3,44.2,11.2,64.7-3.5c49.7-35.7,104.3-58.6,166.9-56.5c79.6,2.7,146.2,37.5,211,86.5c-37.9,31.4-78.5,51.5-121.6,66.8
		c-94.3,33.4-180.6,17.5-260.3-42.1c-10.1-7.6-25.3-8.5-38.2-12.4c-55.5-16.7-103.4,1.9-153.7,25.5c-75,35.2-153.8,62.5-230.9,93.4
		c-4.4,1.8-8.2,5.2-14.7,9.5c17.4,15.4,33,13.8,50.8,6c68.2-29.9,138.6-40.2,210.2-14.8c67.3,23.9,117.7,70.3,161.6,126.2
		c-129.5,65.2-281.9,70.3-378.6-50.1c-9.1-11.3-22.6-20.3-35.7-27c-62.8-31.8-124.4-8.9-187.1,3.5c-81.6,16.1-164,27.7-246.1,41.4
		c-6.3,1-12.5,2.7-26,5.7c21.6,15.7,35.6,25.9,58.2,20.1c70.1-18.2,139.8-18.7,205.2,16.6c69.2,37.4,112.7,98.4,148.5,170.8
		c-16,3.7-29.7,8-43.6,9.8c-76.5,10-152.5,13.3-223.2-26.1c-48.8-27.2-81.3-69-107.2-117.4c-6.4-12-18.1-22.1-29.2-30.6
		c-75-56.7-159-31.1-240.7-24.7c-21.9,1.7-43.5,6.7-66.5,16.5c5.1,3.6,9.7,8,15.2,10.6c46.2,21.8,92.8,42.8,138.5,65.5
		c6.1,3,13,14.9,11.5,20.6c-3.9,15.1-15.6,11.8-26.9,6.3c-46-22.3-92.6-43.1-138-66.5c-47.3-24.4-92.6-25.3-140.5-0.5
		c-50.6,26.2-103.2,48.5-155.2,72.7c-18.6-14.5-16.9-25.3,4.9-35.1c45.8-20.7,91.1-42.1,136.5-63.7c4.6-2.2,8-7,17.4-15.6
		c-37.8-5.6-69.1-10.7-100.4-14.8c-14.6-1.9-30,0.3-44.1-2.9c-60.1-13.8-115-2.1-165.7,31.3c-11,7.3-23.2,16.3-28.8,27.5
		c-50.7,103.3-132.5,155.5-247.7,152.5c-41.2-1.1-82.3-6.1-128.5-9.8c23.4-56,53.9-98.5,92.3-135c75.3-71.6,165.1-82.4,261.8-58.5
		c22.3,5.5,36.7-3.6,51.5-21.3c-7-1.4-13.8-3.4-20.9-4c-110.8-10.6-218.8-35.6-327.4-59.4c-50.4-11-103.4-0.7-141.1,43.2
		c-60.4,70.4-136.1,104.4-228.5,91.6c-49.3-6.9-97.5-21.2-148-32.5c3.1-10.8,3-15.6,5.4-18.4c73.4-87.3,159.5-148.1,281.3-128.2
		c28.8,4.7,56.5,15.9,84.7,24.2c6.6,1.9,13.3,7,19.3,6.2c9.3-1.3,18-6.4,27-10c-7.3-4.5-14.1-10-21.8-13.3
		c-90.8-38.7-181.6-77.3-272.7-115.2c-12.3-5.1-26.5-9-39.5-8.3c-47.5,2.5-91.2,11.9-133.7,39.9c-92.2,60.7-188.4,45.5-281.7-3
		c-21.9-11.4-42.3-25.4-64.6-39c115.1-98.2,250.2-124.6,374.4-35c21.2,15.3,40.7,18.3,67.9,0.2c-4-1.6-8.5-2.4-12-4.8
		c-85.4-57.8-170.2-116.4-256.3-173.2c-14.8-9.8-34.2-16.1-52-17.4c-52.7-3.8-103.5,1.3-155.3,18.9
		c-67.7,22.9-136.9,10.9-196.9-29.1c-37.2-24.9-69.5-57-103.7-86.2c-11-9.4-13.2-18.4,3.6-24.6c71.8-26.7,144.5-43.8,221.1-21.7
		c50.7,14.6,91.7,44.1,127.1,82.4C2376.9,4338.6,2389.4,4342.6,2441,4334.9z"/>
</g>
</svg>
