<?xml version="1.0" encoding="utf-8"?>
<!-- Generator: Adobe Illustrator 26.3.1, SVG Export Plug-In . SVG Version: 6.00 Build 0)  -->
<svg version="1.1" id="Layer_1" xmlns="http://www.w3.org/2000/svg" xmlns:xlink="http://www.w3.org/1999/xlink" x="0px" y="0px"
	 viewBox="0 0 7937 6236.2" style="enable-background:new 0 0 7937 6236.2;" xml:space="preserve">
<style type="text/css">
	.st0{fill:none;stroke:#000000;stroke-width:30.3268;stroke-linecap:round;stroke-linejoin:round;stroke-miterlimit:10;}
	.st1{fill:none;stroke:#000000;stroke-width:30.3268;stroke-linecap:round;stroke-miterlimit:10;}
	.st2{stroke:#000000;stroke-miterlimit:10;}
</style>
<g>
	<g>
		<polyline class="st0" points="1030.5,2345.6 873.6,2342.5 993.7,1931.2 1205.1,1931.2 1095.5,2235.3 1326.7,2235.3 		"/>
		<polyline class="st1" points="1326.7,2236.9 860.5,2801.8 1030.5,2347.1 		"/>
	</g>
	<g>
		<path class="st1" d="M4637.6,2148.4c-42.3-2.2-84.6-2.4-127.7-3.3v50.4h-18.3l36.8,642.2c0,0-3.6,28-30.9,28c-1.9,0-3.9,0-5.9,0
			c0,0-38.1,0-65.4,0c-2,0-4,0-5.9,0c-27.3,0-30.9-28-30.9-28l36.8-642.2h-17.8v-46.7c0,0-76.7,13.1-142.6,43.1H4230v-83.3v-41.8
			v-83.3h35.7c66,30.1,142.6,43.1,142.6,43.1v-34.7h101.6v34.3c2.4,0.3,4.7,0.6,7.1,0.8c124.3,9.8,237.7,48.2,335.4,127.7l67.1,59.2
			c-23.2-10.3-81.6-28.7-81.6-28.7C4769.8,2164,4704.3,2151.8,4637.6,2148.4"/>
	</g>
	<g>
		<polyline class="st1" points="3509.1,2366.4 3509.1,2360.6 3509.1,2093 3359.8,2370.6 3451.5,2367.8 		"/>
		<polyline class="st1" points="2937.7,2367.8 3029.4,2370.6 2880.1,2093 2880.1,2356.4 2880.1,2366.4 		"/>
		<polyline class="st1" points="3225.7,2351.9 3263.2,2253.2 3194.6,1959.8 3126,2253.2 3163.5,2351.9 		"/>
		<path class="st0" d="M2880.1,2366.4v293.7h0c0.5,24.9,12.1,95.5,126.6,95.9v0h156.7v133.6h62.3V2756h156.7v0
			c108.7-0.4,124.7-64,126.4-91.8h0.2v-297.8"/>
		<path class="st0" d="M3163.5,2351.9v346.1h-156.7v0.1c-9.1,0.5-69-0.7-69-41.1v-289.1"/>
		<path class="st0" d="M3451.5,2367.8v275.7c-3.8,56.9-59.9,55-69,54.5v-0.1h-156.7v-346.1"/>
	</g>
	<g>
		<path class="st1" d="M5879.8,2717.6c17.5-42.1,19.2-85.5,13.8-129.3c-5.9-48.5-23.4-94.4-46.8-138.7
			c-20.6-39.2-42.9-77.7-63.9-116.8c-23.4-43.4-40.1-88.4-41.8-136.6l0-11c1.3-10.8,1.7-21.7,3.7-32.4
			c10.6-55.9,39.9-105.1,77.6-151.2c8.9-10.9,18.2-21.5,28.3-33.5c-5,2.1-8.7,3.3-11.9,5c-28.3,14.7-57.3,28.7-84.7,44.6
			c-37.8,21.9-70.8,48.5-100,78.3l-16.4,18.5c-13.5,19-28.2,37.4-39.8,57.2c-31.1,52.7-43.7,109.8-54.1,167.4
			c-6.3,35.1-12.7,70.2-21.3,105c0,0-14.3,61.2-49.3,92.1l-7.9-5.8c-41.3-39.2-52-85.4-43.7-135.8c7.1-43,26.1-82.6,50.3-120.6
			c4.9-7.8,9.9-15.5,14.8-23.3c-10.1,7.8-9,6.9-18.7,15.2c-27.4,23.4-40.7,34-66,59.2c-33.8,33.5-62.1,70.3-84.3,110.3
			c-24.4,44-40.3,89.7-41.8,138.6c-1.5,51.5,12.2,100.5,33.7,148.2"/>
		<path class="st1" d="M5419.8,2660.8c34.8,42.7,84.2,70.4,139.2,93.8c0-3.3,0.2-5.2,0-7.1c-3.1-25.8,0.1-51.3,6-76.6
			c8.3-35.7,22.4-69.9,36.9-104.1l7.5-18.5c16.8-39.4,31.8-79.3,40-120.9c2.5,31.1,14.8,59.9,27.7,88.5
			c9.8,21.8,20.7,43.2,30.9,64.9c21.1,45.1,37.9,91,40.5,139.9"/>
		<path class="st0" d="M5748.3,2720.2c2.2,41.2-6.3,80.7-24.5,118.8c-6.8,14.2-15.1,28-22.8,42.2c36.1-18.2,70-38.2,99.9-62.6
			c35.3-28.9,62.3-62.2,78.7-101.5"/>
		<path class="st0" d="M5309.5,2721.4c25.6,57.1,67.5,103.8,127.2,138.9c11.1,6.5,22.9,12.1,34.4,18.1
			c-24.8-37.2-35.5-64.1-45.2-106.5c-6.3-27.7-10.6-102-6.4-111.7"/>
	</g>
	<g>
		<path class="st0" d="M6829.5,2642.7c-9.3-12.5-19.1-24.8-29.6-38.5c-54.5,19.6-108.4,35-165.9,32.1c-17.2-1.7-78.5-17.9-82.7-12.7
			c-34.3,42.4-65.8,87-99,132l-30,46.3l0,0c-23.4,25.9-55.8,34.3-87.8,43.2c-8.2,2.3-16.6,4.3-24.8,6.6
			c-17.9,5.1-23.2,17.5-19.3,34.7c4.7,20.6,18.6,31.7,38.7,34.8c16.9,2.6,34.1,3.3,51.1,5.6c60.1,8.3,110.7-12.6,160.5-53l19.5-22.1
			c12.6-9.4,23.4-21.5,36.8-26.4c28.6-10.4,58.4-17.7,87.9-25.1c35.8-9,73.2-13.5,107.7-26
			C6848.8,2753.8,6865.1,2690.5,6829.5,2642.7z"/>
		<path class="st1" d="M6554.7,2571.4c-2-28.2-4.5-54-5.4-79.7c-0.1-3.4,0-6.6,0.4-9.6c10.8-217,135.7-301.7,135.7-301.7
			c9.7-7.2,36.6-22.7,47.6-27.6c134.6-59.7,259.7-135.3,378-222.5c2.9-2.2,6.2-3.9,15-9.5c-1,22.8,0.1,41.6-3.1,59.5
			c-8.9,48.9-36.8,82.6-77.6,113.1c-74.2,55.6-151.1,86.7-232.6,106.2c-3,0.7-6.5,1.2-8.5,3.1c-5.3,5.1-9.1,22-14,27.6
			c7.1,2,15,12.8,21.7,11.7c0,0,165.2,9.2,313.6-156.8c1.9-2.1,4.4-4.5,8-8.9c0.6,70-54.2,159.2-116.3,189.6
			c-68.7,33.7-174.9,62.6-263.7,63.4c-7.7,0.1-12.2,23.3-18.8,28.1c8.1,2.9,18.1,21.7,25,21.9c83.9,2.2,217.3-34.4,296-74.8
			c0,0,20.9-11,27.5-15.3c-16.3,71.6-107.5,126.3-177,144.7c-61.1,16.1-163,32.9-230.4,20.1c-7.5-1.4-14,20.4-21.5,23.8
			c7.3,4.4,22.3,23.5,29.7,24.4c80.5,9.2,122.4,5,221.8-18.5c-134.3,106.2-245.5,103.5-290,96.6L6554.7,2571.4z"/>
	</g>
	<g>
		<path class="st0" d="M1000.9,3612.2c124.6,0.1,226.1,96.9,226.4,223c0.3,120.3-97.8,221.9-221.3,221.9
			c-126.9,0-205.3-95.2-220-181.1c-12.9-75.6,6.9-142.6,61.1-197.8C890.2,3634.2,943.5,3613.1,1000.9,3612.2z"/>
		<path class="st0" d="M1311.8,3537.5c-19.1,49.6-38.2,99.2-58.1,150.8c-25.8-37.9-56.1-68.2-94.2-94.2c51.4-19.8,101-38.9,150.5-58
			C1310.7,3536.5,1311.2,3537,1311.8,3537.5z"/>
		<path class="st0" d="M755.2,3990.5c24.6,35.9,54.7,66.3,92.8,92.1c-51.5,19.9-101.1,39-150.7,58.1c-0.5-0.4-1.1-0.9-1.6-1.3
			c19.1-49.6,38.2-99.2,57.3-148.8C753.7,3990.5,754.5,3990.5,755.2,3990.5z"/>
		<path class="st0" d="M1152.4,4082.1c36.1-24.4,66.1-54.9,92.1-92.6c19.8,51.3,38.8,100.8,57.9,150.2c-0.4,0.7-0.8,1.3-1.2,2
			c-49.6-19.1-99.3-38.2-148.9-57.3C1152.3,4083.6,1152.4,4082.8,1152.4,4082.1z"/>
		<path class="st0" d="M697.2,3536c49.6,19.1,99.2,38.2,150.7,58c-37.8,25.9-68.3,56.2-94.1,94.3c-19.9-51.7-39-101.2-58.1-150.8
			C696.3,3537,696.7,3536.5,697.2,3536z"/>
		<path class="st1" d="M949.5,3555.2c36.9-6.9,73.9-6.9,112.6,0.4l-57.4-257l-53.6,248.6L949.5,3555.2z"/>
		<path class="st1" d="M949.5,4105.9c36.9,6.9,73.9,6.9,112.6-0.4l-57.4,257l-53.6-248.6L949.5,4105.9z"/>
		<path class="st1" d="M727.4,3891.1c-6.9-36.9-6.9-73.9,0.4-112.6l-257,57.4l248.6,53.6L727.4,3891.1z"/>
		<path class="st1" d="M1278.1,3891.1c6.9-36.9,6.9-73.9-0.4-112.6l257,57.4l-248.6,53.6L1278.1,3891.1z"/>
	</g>
	<path class="st0" d="M2040.6,2289.8c-94.6,5.3-165.2-66-157.4-158.9C1970.9,2109.6,2065.5,2204.9,2040.6,2289.8z"/>
	<path class="st0" d="M2109.8,2289.5c-12.3-93.7,65.3-171.7,157.6-160.8C2284.8,2215.8,2207.7,2295.7,2109.8,2289.5z"/>
	<path class="st0" d="M1883.9,2316.3c94.8-8.2,166.3,62.6,161,157.2C1962,2498.2,1873.6,2413.3,1883.9,2316.3z"/>
	<path class="st0" d="M2268.8,2316.1c10.8,94.6-67.8,172.6-158.4,159.9C2095.2,2386.8,2171.8,2308.4,2268.8,2316.1z"/>
	<path class="st0" d="M1882.8,2505.5c93.6-12.3,171.9,65.7,160.7,157.6C1956.4,2680.5,1876.8,2603.5,1882.8,2505.5z"/>
	<path class="st0" d="M2270.2,2505.7c5.2,96.7-66.4,167.7-158.8,159.6C2090.7,2578.8,2175.5,2492.2,2270.2,2505.7z"/>
	<polygon class="st1" points="2076.4,1852.9 2012.4,2035.4 2076.4,2148.7 2140.4,2035.4 	"/>
	<path class="st2" d="M2076.2,2712.4c-9.1,0-16.4,7.3-16.4,16.4v176.5v30.9v7.7l16.4,58l16.4-58v-7.7v-30.9v-176.5
		C2092.6,2719.7,2085.3,2712.4,2076.2,2712.4z"/>
	<g>
		<g>
			<path class="st1" d="M2111.6,3878.3c18-7.7,37.5-11.9,60.2-11.1c100.8,3.9,201.9,1.2,302.9,1.2c9.8,0-15.4,0,26.1,0
				c-4.1,155.8-115.3,360.8-291.3,452.6 M2209.3,4321l-24.7,14.1c-11.4,12.7-6.3,25.5,5.2,39.2c13.2,15.6,27.8,7.8,42.1,0.2
				c166.6-88.2,271.5-224.1,313-408.2c7.8-34.6,10.4-51.1,13.2-96.2c35.5,0,73.2,0,110.7,0c0,19.6,0,11.6,0,34.8l221.1-61.9
				l-220-61.3c-1.3,22.8-2.3,15.5-3.4,33.8c-37.2,0-74.8,0-109.8,0c-18.2-223.9-111.1-320.9-111.1-320.9
				c-57.8-80.9-131.6-143.3-221.1-186.3c-9.1-4.3-27.5-2.5-33.4,3.9c-5.7,6.2-10.7,22.2-10,33.9l32.2,17.4
				c174.5,103.5,269.9,246,285.1,453.9c-53.3,0-92.2,0-140.7,0c-70.7,0-141.5-1.6-212.2,0.7c-13.2,0.4-24.4-2.6-34.5-7.5l-50.3-26.5
				"/>
			<line class="st1" x1="2078.3" y1="3897.1" x2="2177.6" y2="4343.2"/>
			<line class="st1" x1="2182.3" y1="3352.2" x2="2077.5" y2="3792.9"/>
			<path class="st1" d="M2498.4,3817.4c0,0,3,17,2.2,51"/>
			<path class="st1" d="M2556.8,3815.5c0,0,3.3,29,1.4,54.6"/>
		</g>
		<polyline class="st0" points="2060.8,3784.1 2036.2,3768.4 1850.7,3768.4 1930.7,3844.6 1850.7,3920.9 2036.2,3920.9 
			2111.6,3878.3 		"/>
	</g>
	<g>
		<path class="st1" d="M3392.9,3711.2"/>
		<path class="st1" d="M3392.9,4319.3"/>
		<path class="st1" d="M3598.6,4004.4c-226.2-47.1-203.2,133.1-203.2,133.1S3551.5,4230.6,3598.6,4004.4z"/>
		<path class="st0" d="M3540.3,3284.2c0,0-343.3,33.7-340.9,277.3c0.8,81.6,76.4,147.7,170.6,147.7c0,0,186.5,17.4,216.2-147.7
			C3588.8,3477.3,3559.2,3388.7,3540.3,3284.2z"/>
		<path class="st0" d="M3199.4,3561.5c0,0,0-93.3,14.5-260.4c71,25,115.2,45.4,115.2,45.4"/>
		<path class="st0" d="M3252.7,3312.2c0,0,10.8-51,13.5-102.1c43.2,35.1,158.1,94.7,158.1,94.7"/>
		<path class="st0" d="M3329.1,3248.7c0,0,104.3-27.9,123.2-41.4c18.9-16.2,23.3,45.7,34.1,76.9"/>
		<polygon class="st2" points="3409.3,3700.8 3409.3,4284.6 3409.3,4315.4 3409.3,4323.1 3392.8,4381.2 3376.4,4323.1 
			3376.4,4315.4 3376.4,4284.6 3376.4,3700.8 		"/>
		<path class="st1" d="M3389.9,3805.4c0,0-7.4,29-121.5,25.2c63.1,26.6,111.3,64.9,119.8,103.9
			C3396.7,3973.6,3389.9,3805.4,3389.9,3805.4z"/>
	</g>
	<g>
		<path class="st1" d="M4556.8,3814.1c115.6-123.5,289.5-187.7,289.5-187.7c60.4-28.6,133.9-97.3,133.9-97.3
			c24.9-25.8,39.2-61.2,39.3-100.5c0-25.8-15.8-39.1-36.1-27.5c-38.5,22.1-74.4,49.4-113.9,69.1c-48.3,24.2-98.5,22.8-149.2,1.5
			c-41.8-17.5-84.5-35.5-128.4-44.3c-19.8-4-39.5-6.4-59-7.2h-9.1c-19.5,0.8-39.2,3.2-59,7.2c-43.9,8.9-86.6,26.8-128.4,44.3
			c-50.6,21.2-100.8,22.7-149.2-1.5c-39.4-19.7-75.4-47.1-113.9-69.1c-20.2-11.6-36.1,1.7-36.1,27.5c0.1,39.2,14.4,74.7,39.3,100.5
			c0,0,73.5,68.7,133.9,97.3c0,0,181,64.3,296.5,187.7c8.3,10.9,16.4,15.5,24.6,14.9C4531.9,3829,4539.6,3832.2,4556.8,3814.1z"/>
		<path class="st1" d="M4635.3,4050.3c-53.1-27.6-83.9-69.7-104.6-130.2c-18.6,62.2-50.4,101.7-103.4,131.5l104,242.3L4635.3,4050.3
			z"/>
		<path class="st1" d="M4757.6,3754.2c49.9,8.8,73.7,75.7,65.3,131.2c-10.2,67.4-70.2,113.3-134,102.5c-55.8-9.4-96-59.2-98.4-116.6
			C4590.5,3871.3,4703.1,3744.6,4757.6,3754.2z"/>
		<path class="st1" d="M4297.1,3754.2c-49.9,8.8-73.7,75.7-65.3,131.2c10.2,67.4,70.2,113.3,134,102.5c55.8-9.4,96-59.2,98.4-116.6
			C4464.2,3871.3,4351.6,3744.6,4297.1,3754.2z"/>
		<path class="st0" d="M4195,3724.2l-68.8-33.9c0,0-212.2,424.2,245.5,444.7l-37.6-87.2c0,0-131.9,3.9-170.6-116.7
			C4147.8,3875.9,4159.2,3773.7,4195,3724.2z"/>
		<path class="st0" d="M4856.4,3734.6l68.8-33.9c0,0,212.2,424.2-245.5,444.7l37.6-87.2c0,0,131.9,3.9,170.6-116.7
			C4903.7,3886.3,4892.2,3784,4856.4,3734.6z"/>
	</g>
	<g>
		<g>
			<path class="st0" d="M6107,4117.9c-27.8-34.9-79.3-93.2-107.2-128.1c-5.1-6.4-10.2-12.7-15.3-19.2c28.1-28.5,56.1-57,83.9-85.3
				c-13.9-13.6-27.6-27.1-41.4-40.7c-6.5,4.7-13.3,9.5-20,14.4c-41.2,29.7-82.5,59.3-123.7,89c-0.9,0.6-1.7,1.4-2.3,2.3
				c-33.6,48.4-67.2,96.8-100.9,145.2c-0.1,0.1-0.2,0.3-0.1,0.1c13.8,13.5,27.5,27,41.1,40.4c27.5-28,55.5-56.5,83.6-85
				c4.7,3.6,9,6.9,13.2,10.2c38.1,29.4,94.6,77.2,132.7,106.6"/>
			<path class="st1" d="M5737.9,3896.3c20.7,18.6,32.9,29.5,53.7,48.1c18.1,16.2,36.2,32.5,54.3,48.7c0.4,0.4,0.9,0.7,1.5,1.2
				l35.9-46.3l51.1-42.1c-0.7-0.8-1.2-1.5-1.8-2.1c-29.9-32.1-59.8-64.3-89.6-96.4"/>
			<path class="st1" d="M5729,3684.8c-21.9-23.5-43.8-47.1-65.7-70.6c-31.7-34.2-63.5-68.3-95.2-102.5c-7.8-8.4-15.6-16.9-23.5-25.2
				c-0.9-1-2.3-1.9-3.6-2.3l-251.3-125.5l128.7,250.2c0.4,1.2,1.3,2.4,2.2,3.3c38.3,34.4,76.7,68.8,115.1,103.2
				c29.6,26.5,59.1,53,88.7,79.6"/>
			<circle class="st0" cx="6118.3" cy="4184.6" r="67.7"/>
		</g>
		<g>
			<path class="st0" d="M5368.8,4117.9c27.8-34.9,79.3-93.2,107.2-128.1c5.1-6.4,10.2-12.7,15.3-19.2c-28.1-28.5-56.1-57-83.9-85.3
				c13.9-13.6,27.6-27.1,41.4-40.7c6.5,4.7,13.3,9.5,20,14.4c41.2,29.7,82.5,59.3,123.7,89c0.9,0.6,1.7,1.4,2.3,2.3
				c33.6,48.4,67.2,96.8,100.9,145.2c0.1,0.1,0.2,0.3,0.1,0.1c-13.8,13.5-27.5,27-41.1,40.4c-27.5-28-55.5-56.5-83.6-85
				c-4.7,3.6-9,6.9-13.2,10.2c-38.1,29.4-94.6,77.2-132.7,106.6"/>
			<path class="st1" d="M6186,3358.5l-128.7,250.2c-0.4,1.2-1.3,2.4-2.2,3.3c-38.3,34.4-76.7,68.8-115.1,103.2
				c-44.5,39.9-89,79.8-133.5,119.7c-40.7,36.5-81.5,73-122.2,109.5c-18.1,16.2-36.2,32.5-54.3,48.7c-0.4,0.4-0.9,0.7-1.5,1.2
				l-35.9-46.3l-51.1-42.1c0.7-0.8,1.2-1.5,1.8-2.1c29.9-32.1,59.8-64.3,89.6-96.4c31.4-33.8,62.9-67.7,94.3-101.6
				c28.4-30.6,56.8-61.1,85.2-91.7c31.7-34.2,63.5-68.3,95.2-102.5c7.8-8.4,15.6-16.9,23.5-25.2c0.9-1,2.3-1.9,3.6-2.3L6186,3358.5z
				"/>
			<circle class="st0" cx="5357.5" cy="4184.6" r="67.7"/>
		</g>
	</g>
	<g>
		<path class="st1" d="M6789,3307.8l104.2,991.5l95.4-991.5l0.1-1.9c-1.3-28.8-61.5-88.8-99.9-88.8s-98.6,60-99.9,88.8L6789,3307.8z
			"/>
		<line class="st1" x1="6888.8" y1="3336.7" x2="6888.8" y2="3423.9"/>
		<g>
			<path class="st1" d="M6702.4,3386.3c37.8-2.4,186.1,0,186.1,0"/>
			<path class="st1" d="M6819.8,3600.2c-61.7,0.3-115.1,0.8-115.1,0.8"/>
			<path class="st1" d="M6997.4,3601c-8.6-0.4-12.1-0.7-31.1-0.9"/>
			<path class="st1" d="M6772.6,3881.8c54.3,0,229.4,0,229.4,0"/>
			<line class="st1" x1="6864.2" y1="4082.7" x2="6765.4" y2="4082.7"/>
			<line class="st1" x1="7019" y1="4082.7" x2="6919.1" y2="4082.7"/>
			<path class="st1" d="M6704.7,3601c-59.3,0-107.4-48.1-107.4-107.4s48.1-107.4,107.4-107.4"/>
			<path class="st1" d="M6992.6,3601c77.5,0,140.4,62.9,140.4,140.4s-62.9,140.4-140.4,140.4"/>
			<path class="st1" d="M6772.6,4082.7c-55.5,0-100.4-45-100.4-100.4s45-100.4,100.4-100.4"/>
			<path class="st1" d="M6989.8,3386.3c36.9,0,66.8,29.9,66.8,66.8"/>
		</g>
	</g>
</g>
</svg>
